<mxfile host="app.diagrams.net" agent="Mozilla/5.0 (Macintosh; Intel Mac OS X 10_15_7) AppleWebKit/537.36 (KHTML, like Gecko) Chrome/131.0.0.0 Safari/537.36" version="24.9.0">
  <diagram id="bw7puUuR2UbWOPHHjDD7" name="Page-1">
    <mxGraphModel dx="33680" dy="20569" grid="1" gridSize="10" guides="1" tooltips="1" connect="1" arrows="1" fold="1" page="1" pageScale="1" pageWidth="850" pageHeight="1100" math="0" shadow="0">
      <root>
        <mxCell id="0" />
        <mxCell id="1" parent="0" />
        <mxCell id="2" value="Client" style="ellipse" parent="1" vertex="1">
          <mxGeometry x="40" y="50" width="140" height="60" as="geometry" />
        </mxCell>
        <mxCell id="3" value="DNS" style="ellipse" parent="1" vertex="1">
          <mxGeometry x="213" y="50" width="140" height="60" as="geometry" />
        </mxCell>
        <mxCell id="4" value="CDN" style="ellipse" parent="1" vertex="1">
          <mxGeometry x="417" y="50" width="140" height="60" as="geometry" />
        </mxCell>
        <mxCell id="5" value="Load Balancer" style="ellipse" parent="1" vertex="1">
          <mxGeometry x="328" y="170" width="140" height="60" as="geometry" />
        </mxCell>
        <mxCell id="6" value="Read API" style="ellipse" parent="1" vertex="1">
          <mxGeometry y="210" width="140" height="60" as="geometry" />
        </mxCell>
        <mxCell id="7" value="Write API" style="ellipse" parent="1" vertex="1">
          <mxGeometry x="315" y="250" width="140" height="60" as="geometry" />
        </mxCell>
        <mxCell id="8" value="Cache Service (Redis)" style="ellipse" parent="1" vertex="1">
          <mxGeometry x="260" y="350" width="140" height="60" as="geometry" />
        </mxCell>
        <mxCell id="9" value="Read Replicas" style="ellipse" parent="1" vertex="1">
          <mxGeometry x="10" y="530" width="140" height="60" as="geometry" />
        </mxCell>
        <mxCell id="10" value="Write Replica" style="ellipse" parent="1" vertex="1">
          <mxGeometry x="404" y="530" width="140" height="60" as="geometry" />
        </mxCell>
        <mxCell id="11" value="Object Storage (S3)" style="ellipse" parent="1" vertex="1">
          <mxGeometry x="630" y="180" width="140" height="60" as="geometry" />
        </mxCell>
        <mxCell id="12" value="Workers" style="ellipse" parent="1" vertex="1">
          <mxGeometry x="480" y="330" width="140" height="60" as="geometry" />
        </mxCell>
        <mxCell id="13" value="Notification Service" style="ellipse" parent="1" vertex="1">
          <mxGeometry x="600" y="460" width="140" height="60" as="geometry" />
        </mxCell>
        <mxCell id="14" value="Analytics &amp; Reporting" style="ellipse" parent="1" vertex="1">
          <mxGeometry x="680" y="360" width="140" height="60" as="geometry" />
        </mxCell>
        <mxCell id="100" style="edgeStyle=orthogonalEdgeStyle;rounded=1;endArrow=classic;endFill=1;" parent="1" source="2" target="3" edge="1" />
        <mxCell id="101" style="edgeStyle=orthogonalEdgeStyle;rounded=1;endArrow=classic;endFill=1;" parent="1" source="3" target="4" edge="1" />
        <mxCell id="102" style="edgeStyle=orthogonalEdgeStyle;rounded=1;endArrow=classic;endFill=1;" parent="1" source="4" target="5" edge="1" />
        <mxCell id="103" style="edgeStyle=orthogonalEdgeStyle;rounded=1;endArrow=classic;endFill=1;" parent="1" source="5" target="6" edge="1" />
        <mxCell id="104" style="edgeStyle=orthogonalEdgeStyle;rounded=1;endArrow=classic;endFill=1;" parent="1" source="5" target="7" edge="1" />
        <mxCell id="105" style="edgeStyle=orthogonalEdgeStyle;rounded=1;endArrow=classic;endFill=1;" parent="1" source="6" target="8" edge="1" />
        <mxCell id="106" style="edgeStyle=orthogonalEdgeStyle;rounded=1;endArrow=classic;endFill=1;" parent="1" source="7" target="8" edge="1" />
        <mxCell id="107" style="edgeStyle=orthogonalEdgeStyle;rounded=1;endArrow=classic;endFill=1;" parent="1" source="8" target="9" edge="1" />
        <mxCell id="108" style="edgeStyle=orthogonalEdgeStyle;rounded=1;endArrow=classic;endFill=1;" parent="1" source="8" target="10" edge="1" />
        <mxCell id="109" style="edgeStyle=orthogonalEdgeStyle;rounded=1;endArrow=classic;endFill=1;" parent="1" source="7" target="11" edge="1" />
        <mxCell id="110" style="edgeStyle=orthogonalEdgeStyle;rounded=1;endArrow=classic;endFill=1;" parent="1" source="7" target="12" edge="1" />
        <mxCell id="111" style="edgeStyle=orthogonalEdgeStyle;rounded=1;endArrow=classic;endFill=1;" parent="1" source="12" target="13" edge="1" />
        <mxCell id="112" style="edgeStyle=orthogonalEdgeStyle;rounded=1;endArrow=classic;endFill=1;" parent="1" source="12" target="14" edge="1" />
        <mxCell id="6wQFtYDVmAXKomCk2_GR-112" value="" style="edgeStyle=orthogonalEdgeStyle;rounded=1;endArrow=classic;endFill=1;" parent="1" source="2" edge="1">
          <mxGeometry width="50" height="50" relative="1" as="geometry">
            <mxPoint x="170" y="130" as="sourcePoint" />
            <mxPoint x="220" y="80" as="targetPoint" />
          </mxGeometry>
        </mxCell>
        <mxCell id="6wQFtYDVmAXKomCk2_GR-113" value="" style="edgeStyle=orthogonalEdgeStyle;rounded=1;endArrow=classic;endFill=1;" parent="1" source="3" target="4" edge="1">
          <mxGeometry width="50" height="50" relative="1" as="geometry">
            <mxPoint x="210" y="90" as="sourcePoint" />
            <mxPoint x="230" y="90" as="targetPoint" />
          </mxGeometry>
        </mxCell>
        <mxCell id="6wQFtYDVmAXKomCk2_GR-117" value="" style="edgeStyle=orthogonalEdgeStyle;rounded=1;endArrow=classic;endFill=1;" parent="1" source="4" target="5" edge="1">
          <mxGeometry width="50" height="50" relative="1" as="geometry">
            <mxPoint x="570" y="90" as="sourcePoint" />
            <mxPoint x="620" y="40" as="targetPoint" />
            <Array as="points">
              <mxPoint x="620" y="90" />
              <mxPoint x="580" y="130" />
            </Array>
          </mxGeometry>
        </mxCell>
        <mxCell id="6wQFtYDVmAXKomCk2_GR-118" value="" style="edgeStyle=orthogonalEdgeStyle;rounded=1;endArrow=classic;endFill=1;" parent="1" source="5" target="6" edge="1">
          <mxGeometry width="50" height="50" relative="1" as="geometry">
            <mxPoint x="70" y="130" as="sourcePoint" />
            <mxPoint x="-90" y="230" as="targetPoint" />
            <Array as="points">
              <mxPoint x="150" y="140" />
              <mxPoint x="-10" y="230" />
            </Array>
          </mxGeometry>
        </mxCell>
        <mxCell id="6wQFtYDVmAXKomCk2_GR-121" value="" style="edgeStyle=orthogonalEdgeStyle;rounded=1;endArrow=classic;endFill=1;" parent="1" source="5" target="7" edge="1">
          <mxGeometry width="50" height="50" relative="1" as="geometry">
            <mxPoint x="415" y="260" as="sourcePoint" />
            <mxPoint x="225" y="360" as="targetPoint" />
            <Array as="points">
              <mxPoint x="165" y="310" />
            </Array>
          </mxGeometry>
        </mxCell>
        <mxCell id="6wQFtYDVmAXKomCk2_GR-122" value="" style="edgeStyle=orthogonalEdgeStyle;rounded=1;endArrow=classic;endFill=1;" parent="1" source="6" target="8" edge="1">
          <mxGeometry width="50" height="50" relative="1" as="geometry">
            <mxPoint x="270" y="370" as="sourcePoint" />
            <mxPoint x="320" y="320" as="targetPoint" />
            <Array as="points">
              <mxPoint x="160" y="330" />
              <mxPoint x="50" y="370" />
              <mxPoint x="110" y="380" />
            </Array>
          </mxGeometry>
        </mxCell>
        <mxCell id="6wQFtYDVmAXKomCk2_GR-123" value="" style="edgeStyle=orthogonalEdgeStyle;rounded=1;endArrow=classic;endFill=1;" parent="1" source="7" target="8" edge="1">
          <mxGeometry width="50" height="50" relative="1" as="geometry">
            <mxPoint x="370" y="270" as="sourcePoint" />
            <mxPoint x="360" y="350" as="targetPoint" />
            <Array as="points">
              <mxPoint x="410" y="310" />
              <mxPoint x="260" y="330" />
              <mxPoint x="140" y="320" />
            </Array>
          </mxGeometry>
        </mxCell>
        <mxCell id="6wQFtYDVmAXKomCk2_GR-124" value="" style="edgeStyle=orthogonalEdgeStyle;rounded=1;endArrow=classic;endFill=1;" parent="1" source="8" target="9" edge="1">
          <mxGeometry width="50" height="50" relative="1" as="geometry">
            <mxPoint x="140" y="590" as="sourcePoint" />
            <mxPoint x="50" y="480" as="targetPoint" />
            <Array as="points">
              <mxPoint x="340" y="410" />
              <mxPoint x="20" y="450" />
            </Array>
          </mxGeometry>
        </mxCell>
        <mxCell id="6wQFtYDVmAXKomCk2_GR-126" value="" style="edgeStyle=orthogonalEdgeStyle;rounded=1;endArrow=classic;endFill=1;" parent="1" source="8" target="10" edge="1">
          <mxGeometry width="50" height="50" relative="1" as="geometry">
            <mxPoint x="270" y="370" as="sourcePoint" />
            <mxPoint x="320" y="320" as="targetPoint" />
            <Array as="points">
              <mxPoint x="410" y="400" />
              <mxPoint x="400" y="400" />
              <mxPoint x="410" y="420" />
              <mxPoint x="390" y="430" />
              <mxPoint x="570" y="520" />
            </Array>
          </mxGeometry>
        </mxCell>
        <mxCell id="6wQFtYDVmAXKomCk2_GR-127" value="" style="edgeStyle=orthogonalEdgeStyle;rounded=1;endArrow=classic;endFill=1;" parent="1" source="7" target="11" edge="1">
          <mxGeometry width="50" height="50" relative="1" as="geometry">
            <mxPoint x="400" y="260" as="sourcePoint" />
            <mxPoint x="450" y="210" as="targetPoint" />
          </mxGeometry>
        </mxCell>
        <mxCell id="6wQFtYDVmAXKomCk2_GR-128" value="" style="edgeStyle=orthogonalEdgeStyle;rounded=1;endArrow=classic;endFill=1;" parent="1" source="7" target="12" edge="1">
          <mxGeometry width="50" height="50" relative="1" as="geometry">
            <mxPoint x="380" y="290" as="sourcePoint" />
            <mxPoint x="480" y="260" as="targetPoint" />
          </mxGeometry>
        </mxCell>
        <mxCell id="6wQFtYDVmAXKomCk2_GR-131" value="" style="edgeStyle=orthogonalEdgeStyle;rounded=1;endArrow=classic;endFill=1;exitX=0.77;exitY=0.128;exitDx=0;exitDy=0;exitPerimeter=0;" parent="1" target="14" edge="1" source="12">
          <mxGeometry width="50" height="50" relative="1" as="geometry">
            <mxPoint x="590" y="330" as="sourcePoint" />
            <mxPoint x="670" y="380" as="targetPoint" />
          </mxGeometry>
        </mxCell>
        <mxCell id="6wQFtYDVmAXKomCk2_GR-132" value="" style="edgeStyle=orthogonalEdgeStyle;rounded=1;endArrow=classic;endFill=1;" parent="1" source="12" target="13" edge="1">
          <mxGeometry width="50" height="50" relative="1" as="geometry">
            <mxPoint x="600" y="340" as="sourcePoint" />
            <mxPoint x="700" y="370" as="targetPoint" />
            <Array as="points">
              <mxPoint x="590" y="380" />
            </Array>
          </mxGeometry>
        </mxCell>
      </root>
    </mxGraphModel>
  </diagram>
</mxfile>
